<?xml version="1.0" encoding="UTF-8"?>
<!DOCTYPE svg PUBLIC "-//W3C//DTD SVG 1.1//EN" "http://www.w3.org/Graphics/SVG/1.1/DTD/svg11.dtd">
<!-- Creator: CorelDRAW 2018 (64-Bit) -->
<svg xmlns="http://www.w3.org/2000/svg" xml:space="preserve" width="110.067mm" height="29.3935mm" version="1.1" style="shape-rendering:geometricPrecision; text-rendering:geometricPrecision; image-rendering:optimizeQuality; fill-rule:evenodd; clip-rule:evenodd"
viewBox="0 0 5921.96 1581.47"
 xmlns:xlink="http://www.w3.org/1999/xlink">
 <defs>
  <style type="text/css">
   <![CDATA[
    .fil0 {fill:white;fill-rule:nonzero}
   ]]>
  </style>
 </defs>
 <g id="Layer_x0020_1">
  <metadata id="CorelCorpID_0Corel-Layer"/>
  <path class="fil0" d="M445.72 405.94l308.64 0 0 24.94c0,117.88 -33.3,210.82 -100.09,278.83 -66.79,68.18 -157.98,102.18 -273.42,102.18 -35.23,0 -68.71,-3.66 -100.44,-11.16 -31.91,-7.49 -61.38,-18.48 -88.24,-32.78 -61.38,-33.65 -108.63,-80.21 -142.11,-139.67 -33.3,-59.46 -50.05,-126.94 -50.05,-202.62 0,-62.26 9.94,-118.58 29.82,-168.8 20.05,-50.22 50.05,-94.51 90.33,-132.52 33.65,-32.08 72.89,-56.32 117.53,-72.54 44.64,-16.39 93.99,-24.59 148.22,-24.59 71.84,0 134.09,13.08 186.93,39.06 52.84,25.98 96.6,65.22 131.31,117.7l-74.63 59.81c-26.86,-45.34 -60.34,-79.34 -100.62,-102.01 -40.11,-22.67 -86.84,-34 -139.85,-34 -86.84,0 -157.46,29.3 -211.52,87.89 -54.23,58.59 -81.26,135.31 -81.26,230 0,89.28 27.55,162.51 82.48,219.88 54.93,57.19 125.03,85.79 210.12,85.79 74.98,0 137.41,-22.67 187.28,-68.18 49.87,-45.51 77.6,-104.8 83,-177.69l-213.43 0 0 -79.52z"/>
  <path class="fil0" d="M924.9 559.74c0,49.34 16.57,91.2 49.53,125.37 33.13,34.35 73.23,51.44 120.14,51.44 46.73,0 86.49,-17.09 119.27,-51.44 32.6,-34.18 49,-76.03 49,-125.37 0,-49.35 -16.39,-91.2 -49,-125.38 -32.78,-34.35 -72.54,-51.44 -119.27,-51.44 -47.26,0 -87.37,17.09 -120.32,51.44 -32.95,34.18 -49.35,76.03 -49.35,125.38zm-84.75 -0.35c0,-34.35 6.28,-66.79 18.83,-97.3 12.73,-30.34 31.04,-57.54 55.28,-81.43 24.24,-23.89 51.61,-42.03 82.31,-54.41 30.69,-12.38 63.29,-18.66 98.17,-18.66 34,0 66.26,6.28 96.78,18.84 30.52,12.73 58.07,31.04 83,55.27 24.24,23.54 42.55,50.4 55.28,80.91 12.56,30.52 18.83,62.78 18.83,96.78 0,34.18 -6.27,66.26 -18.83,96.43 -12.73,30.17 -31.04,57.02 -55.28,80.39 -24.93,24.59 -52.66,43.25 -83.52,56.32 -30.86,12.91 -62.95,19.36 -96.25,19.36 -34.53,0 -67.14,-6.45 -98,-19.18 -30.87,-12.73 -58.24,-31.04 -82.48,-54.93 -24.24,-24.59 -42.55,-51.79 -55.28,-81.78 -12.55,-30 -18.83,-62.08 -18.83,-96.6z"/>
  <polygon class="fil0" points="1481.33,792.01 1481.33,43.94 1570.26,43.94 1570.26,707.26 1852.75,707.26 1852.75,792.01 "/>
  <path class="fil0" d="M2263.4 505.34c-2.79,-41.15 -16.39,-72.89 -41.15,-95.21 -24.59,-22.32 -58.41,-33.48 -101.31,-33.48 -38.88,0 -71.32,11.68 -97.13,35.05 -25.98,23.19 -40.98,54.41 -44.99,93.64l284.58 0zm85.79 64.87l-370.37 0 0 7.15c0,50.04 14.3,90.5 42.9,121.36 28.6,30.86 65.91,46.21 111.95,46.21 31.21,0 59.64,-8.37 84.75,-25.28 25.28,-16.74 47.61,-42.2 66.96,-76.2l60.68 40.8c-23.37,42.2 -53.36,74.11 -89.8,95.55 -36.45,21.45 -78.64,32.09 -126.77,32.09 -71.14,0 -128.69,-23.54 -172.63,-70.45 -43.95,-47.08 -65.91,-108.81 -65.91,-185.01 0,-73.24 21.8,-133.22 65.39,-179.96 43.6,-46.56 99.57,-69.92 168.1,-69.92 69.05,0 123.81,22.15 164.26,66.44 40.28,44.29 60.51,104.8 60.51,181.35l0 15.87z"/>
  <path class="fil0" d="M2827.5 562.88c0,-52.83 -14.47,-95.38 -43.25,-127.47 -28.77,-32.26 -66.26,-48.3 -112.64,-48.3 -47.96,0 -85.45,14.82 -112.3,44.47 -27.03,29.64 -40.45,70.97 -40.45,124.15 0,56.5 13.6,100.09 40.63,130.61 27.03,30.69 65.56,46.03 115.26,46.03 47.61,0 85.1,-14.82 112.13,-44.64 27.03,-29.82 40.63,-71.49 40.63,-124.85zm77.42 -238.54l0 467.67 -77.42 0 0 -84.75c-18.66,34 -42.72,59.99 -71.84,77.77 -29.12,17.96 -61.73,26.85 -97.83,26.85 -66.96,0 -121.19,-23.02 -162.16,-69.23 -40.98,-46.21 -61.56,-107.24 -61.56,-183.27 0,-76.9 19.88,-138.11 59.81,-183.62 39.76,-45.51 93.11,-68.19 159.9,-68.19 39.06,0 73.07,8.72 101.83,26.33 28.77,17.62 52.14,43.94 69.75,78.64l0 -88.23 79.52 0z"/>
  <path class="fil0" d="M3065.87 792.01l0 -467.67 71.32 0 0 97.48c21.45,-40.63 44.29,-69.58 68.53,-87.02 24.23,-17.44 53.71,-26.15 88.4,-26.15 9.59,0 18.83,0.7 27.72,2.27 8.72,1.57 17.62,3.84 26.5,6.8l-26.5 72.54c-9.24,-3.14 -17.96,-5.41 -26.15,-6.98 -8.19,-1.57 -16.04,-2.27 -23.54,-2.27 -42.2,0 -73.94,15.17 -95.04,45.68 -21.1,30.52 -31.73,76.37 -31.73,137.58l0 227.73 -79.52 0z"/>
  <path class="fil0" d="M3432.05 673.91l0 -349.57 78.47 0 0 72.19c20.05,-29.99 44.29,-52.31 72.54,-66.96 28.25,-14.65 61.03,-21.97 98,-21.97 55.28,0 98.35,14.65 129.21,43.95 31.04,29.29 46.56,70.1 46.56,122.24l0 318.23 -81.6 0 0 -275.34c0,-47.43 -9.94,-82.48 -29.82,-105.49 -20.06,-23.02 -50.75,-34.53 -92.25,-34.53 -23.89,0 -45.68,4.36 -65.22,13.07 -19.53,8.72 -35.75,20.92 -48.83,36.97 -9.77,12.21 -16.92,26.33 -21.1,41.85 -4.36,15.69 -6.46,42.9 -6.46,81.78l0 203.09 -79.51 -79.51z"/>
  <polygon class="fil0" points="3926.05,43.94 4022.3,43.94 4211.85,594.27 4409.59,14.65 4609.25,594.27 4799.84,43.94 4895.92,43.94 4606.28,821.3 4410.64,242.73 4215.86,821.3 "/>
  <path class="fil0" d="M5244.85 505.34c-2.79,-41.15 -16.39,-72.89 -41.15,-95.21 -24.59,-22.32 -58.41,-33.48 -101.31,-33.48 -38.88,0 -71.32,11.68 -97.13,35.05 -25.98,23.19 -40.98,54.41 -44.99,93.64l284.58 0zm85.79 64.87l-370.37 0 0 7.15c0,50.04 14.3,90.5 42.9,121.36 28.6,30.86 65.91,46.21 111.95,46.21 31.21,0 59.64,-8.37 84.75,-25.28 25.28,-16.74 47.61,-42.2 66.96,-76.2l60.68 40.8c-23.37,42.2 -53.36,74.11 -89.8,95.55 -36.45,21.45 -78.64,32.09 -126.77,32.09 -71.14,0 -128.69,-23.54 -172.63,-70.45 -43.95,-47.08 -65.91,-108.81 -65.91,-185.01 0,-73.24 21.8,-133.22 65.39,-179.96 43.6,-46.56 99.57,-69.92 168.1,-69.92 69.05,0 123.81,22.15 164.26,66.44 40.28,44.29 60.51,104.8 60.51,181.35l0 15.87z"/>
  <path class="fil0" d="M5527.5 560.79c0,54.41 13.95,97.13 42.03,127.64 27.9,30.69 66.26,46.03 114.91,46.03 47.6,0 85.09,-16.22 112.12,-48.83 27.03,-32.43 40.63,-77.6 40.63,-135.14 0,-51.09 -13.25,-91.02 -39.93,-119.97 -26.51,-28.95 -63.3,-43.42 -110.21,-43.42 -47.78,0 -86.32,15.87 -115.61,47.78 -29.3,31.74 -43.94,73.76 -43.94,125.9zm-76.37 -560.79l79.51 0 0 412.57c18.14,-34.7 41.33,-61.03 69.93,-78.64 28.6,-17.61 62.25,-26.33 100.61,-26.33 67.14,0 120.67,22.84 160.77,68.53 39.93,45.51 59.99,106.72 59.99,183.27 0,76.02 -20.4,137.06 -61.38,183.27 -40.8,46.21 -94.86,69.23 -162.34,69.23 -36.1,0 -69.05,-9.07 -98.7,-27.2 -29.47,-18.31 -53.53,-43.94 -72.02,-77.25l0 84.57 -76.37 0 0 -792.01z"/>
  <path class="fil0" d="M39.38 1367.64c0,22.92 7.69,42.36 23,58.24 15.39,15.96 34.02,23.89 55.8,23.89 21.71,0 40.18,-7.94 55.4,-23.89 15.15,-15.88 22.76,-35.32 22.76,-58.24 0,-22.92 -7.62,-42.36 -22.76,-58.24 -15.23,-15.95 -33.69,-23.89 -55.4,-23.89 -21.95,0 -40.58,7.94 -55.89,23.89 -15.31,15.88 -22.92,35.32 -22.92,58.24zm-39.36 -0.16c0,-15.96 2.92,-31.02 8.74,-45.19 5.91,-14.1 14.42,-26.73 25.68,-37.82 11.26,-11.1 23.97,-19.52 38.23,-25.27 14.26,-5.75 29.4,-8.67 45.6,-8.67 15.8,0 30.78,2.92 44.95,8.75 14.18,5.91 26.97,14.41 38.56,25.68 11.26,10.93 19.76,23.41 25.68,37.58 5.83,14.17 8.75,29.16 8.75,44.95 0,15.88 -2.92,30.78 -8.75,44.79 -5.91,14.01 -14.41,26.48 -25.68,37.34 -11.58,11.42 -24.46,20.08 -38.8,26.16 -14.33,5.99 -29.24,8.99 -44.71,8.99 -16.03,0 -31.18,-3 -45.52,-8.91 -14.33,-5.91 -27.05,-14.41 -38.31,-25.51 -11.26,-11.42 -19.77,-24.06 -25.68,-37.99 -5.83,-13.93 -8.74,-28.83 -8.74,-44.87z"/>
  <path id="1" class="fil0" d="M488.52 1368.13c0,25.27 6.48,45.11 19.52,59.29 12.97,14.25 30.78,21.38 53.38,21.38 22.11,0 39.52,-7.53 52.08,-22.68 12.56,-15.06 18.87,-36.04 18.87,-62.77 0,-23.73 -6.16,-42.28 -18.55,-55.72 -12.31,-13.45 -29.4,-20.17 -51.19,-20.17 -22.19,0 -40.09,7.37 -53.7,22.19 -13.61,14.74 -20.41,34.26 -20.41,58.48zm-35.48 -260.48l36.94 0 0 191.63c8.43,-16.11 19.2,-28.34 32.49,-36.53 13.28,-8.18 28.91,-12.23 46.73,-12.23 31.18,0 56.05,10.61 74.67,31.83 18.55,21.14 27.86,49.57 27.86,85.13 0,35.32 -9.47,63.66 -28.51,85.13 -18.95,21.46 -44.06,32.15 -75.41,32.15 -16.77,0 -32.08,-4.21 -45.85,-12.63 -13.69,-8.51 -24.87,-20.41 -33.45,-35.88l0 39.28 -35.48 0 0 -367.88z"/>
  <path id="2" class="fil0" d="M1044.1 1342.37c-1.3,-19.12 -7.61,-33.85 -19.12,-44.22 -11.42,-10.37 -27.13,-15.55 -47.06,-15.55 -18.06,0 -33.13,5.43 -45.11,16.28 -12.07,10.77 -19.04,25.27 -20.9,43.49l132.18 0zm39.85 30.13l-172.04 0 0 3.33c0,23.24 6.64,42.04 19.92,56.37 13.28,14.34 30.62,21.46 52,21.46 14.49,0 27.7,-3.88 39.36,-11.74 11.75,-7.78 22.11,-19.6 31.1,-35.4l28.19 18.95c-10.86,19.6 -24.79,34.42 -41.71,44.38 -16.93,9.96 -36.53,14.9 -58.88,14.9 -33.05,0 -59.78,-10.93 -80.19,-32.72 -20.41,-21.87 -30.61,-50.54 -30.61,-85.93 0,-34.02 10.12,-61.88 30.37,-83.59 20.25,-21.62 46.25,-32.48 78.08,-32.48 32.07,0 57.51,10.29 76.3,30.86 18.71,20.57 28.11,48.68 28.11,84.23l0 7.37z"/>
  <polygon id="3" class="fil0" points="1290.35,1581.47 1349.23,1454.23 1264.03,1258.3 1306.96,1258.3 1370.13,1414.29 1437.04,1258.3 1477.86,1258.3 1332.14,1581.47 "/>
  <polygon id="4" class="fil0" points="1950.01,1581.47 2008.9,1454.23 1923.69,1258.3 1966.62,1258.3 2029.79,1414.29 2096.69,1258.3 2137.52,1258.3 1991.8,1581.47 "/>
  <path id="5" class="fil0" d="M2353.48 1367.64c0,22.92 7.69,42.36 23,58.24 15.39,15.96 34.02,23.89 55.8,23.89 21.71,0 40.18,-7.94 55.4,-23.89 15.15,-15.88 22.76,-35.32 22.76,-58.24 0,-22.92 -7.62,-42.36 -22.76,-58.24 -15.23,-15.95 -33.69,-23.89 -55.4,-23.89 -21.95,0 -40.58,7.94 -55.89,23.89 -15.31,15.88 -22.92,35.32 -22.92,58.24zm-39.36 -0.16c0,-15.96 2.92,-31.02 8.74,-45.19 5.91,-14.1 14.42,-26.73 25.68,-37.82 11.26,-11.1 23.97,-19.52 38.23,-25.27 14.26,-5.75 29.4,-8.67 45.6,-8.67 15.8,0 30.78,2.92 44.95,8.75 14.18,5.91 26.97,14.41 38.56,25.68 11.26,10.93 19.76,23.41 25.68,37.58 5.83,14.17 8.75,29.16 8.75,44.95 0,15.88 -2.92,30.78 -8.75,44.79 -5.91,14.01 -14.41,26.48 -25.68,37.34 -11.58,11.42 -24.46,20.08 -38.8,26.16 -14.33,5.99 -29.24,8.99 -44.71,8.99 -16.03,0 -31.18,-3 -45.52,-8.91 -14.33,-5.91 -27.05,-14.41 -38.31,-25.51 -11.26,-11.42 -19.77,-24.06 -25.68,-37.99 -5.83,-13.93 -8.74,-28.83 -8.74,-44.87z"/>
  <path id="6" class="fil0" d="M2802.14 1258.3l0 106.91c0,31.18 4.62,52.97 13.85,65.45 9.31,12.39 24.86,18.63 46.9,18.63 21.95,0 37.5,-6.16 46.65,-18.39 9.07,-12.31 13.61,-34.18 13.61,-65.69l0 -106.91 37.91 0 0 126.84c0,32.72 -8.34,57.51 -25.11,74.35 -16.77,16.85 -41.47,25.27 -74.03,25.27 -32.23,0 -56.77,-8.42 -73.54,-25.35 -16.77,-16.93 -25.1,-41.71 -25.1,-74.27l0 -126.84 38.88 0z"/>
  <path id="7" class="fil0" d="M3192.48 1475.53l0 -217.23 33.13 0 0 45.28c9.96,-18.87 20.57,-32.31 31.83,-40.42 11.26,-8.1 24.95,-12.15 41.06,-12.15 4.45,0 8.75,0.33 12.88,1.05 4.05,0.73 8.18,1.78 12.31,3.16l-12.31 33.7c-4.29,-1.46 -8.34,-2.51 -12.15,-3.24 -3.81,-0.73 -7.45,-1.05 -10.94,-1.05 -19.6,0 -34.34,7.04 -44.14,21.22 -9.8,14.17 -14.74,35.48 -14.74,63.9l0 105.78 -36.93 0z"/>
  <path id="8" class="fil0" d="M3974.6 1368.13c0,-24.22 -6.72,-43.74 -20.17,-58.48 -13.45,-14.82 -31.18,-22.19 -53.22,-22.19 -21.95,0 -39.12,6.72 -51.43,20.17 -12.39,13.45 -18.55,31.99 -18.55,55.72 0,26.73 6.24,47.71 18.71,62.77 12.55,15.15 29.81,22.68 51.75,22.68 22.84,0 40.66,-7.13 53.54,-21.38 12.88,-14.18 19.36,-34.02 19.36,-59.29zm35.97 -260.48l0 367.88 -35.97 0 0 -39.28c-8.59,15.63 -19.6,27.62 -33.21,35.96 -13.61,8.34 -28.83,12.55 -45.6,12.55 -31.18,0 -56.29,-10.69 -75.33,-32.15 -19.03,-21.47 -28.59,-49.81 -28.59,-85.13 0,-35.56 9.31,-63.99 28.03,-85.13 18.63,-21.22 43.49,-31.83 74.52,-31.83 17.98,0 33.69,4.05 46.98,12.23 13.28,8.18 23.97,20.41 32.23,36.53l0 -191.63 36.94 0z"/>
  <path id="9" class="fil0" d="M4399.45 1342.37c-1.3,-19.12 -7.61,-33.85 -19.12,-44.22 -11.42,-10.37 -27.13,-15.55 -47.06,-15.55 -18.06,0 -33.13,5.43 -45.11,16.28 -12.07,10.77 -19.04,25.27 -20.9,43.49l132.18 0zm39.85 30.13l-172.04 0 0 3.33c0,23.24 6.64,42.04 19.92,56.37 13.28,14.34 30.62,21.46 52,21.46 14.49,0 27.7,-3.88 39.36,-11.74 11.75,-7.78 22.11,-19.6 31.1,-35.4l28.19 18.95c-10.86,19.6 -24.79,34.42 -41.71,44.38 -16.93,9.96 -36.53,14.9 -58.88,14.9 -33.05,0 -59.78,-10.93 -80.19,-32.72 -20.41,-21.87 -30.61,-50.54 -30.61,-85.93 0,-34.02 10.12,-61.88 30.37,-83.59 20.25,-21.62 46.25,-32.48 78.08,-32.48 32.07,0 57.51,10.29 76.3,30.86 18.71,20.57 28.11,48.68 28.11,84.23l0 7.37z"/>
  <path id="10" class="fil0" d="M4631.44 1439l31.83 -21.31c5.99,11.5 13.53,20.09 22.76,25.84 9.15,5.75 20.01,8.66 32.48,8.66 12.15,0 22.03,-3 29.57,-8.99 7.53,-5.99 11.26,-13.93 11.26,-23.73 0,-7.53 -2.59,-13.85 -7.69,-18.95 -5.18,-5.02 -14.01,-9.72 -26.49,-13.93l-6.16 -2.19c-52.81,-18.14 -79.21,-40.98 -79.21,-68.36 0,-19.28 7.12,-35.07 21.3,-47.22 14.25,-12.23 32.72,-18.3 55.48,-18.3 18.87,0 34.99,3.72 48.43,11.26 13.45,7.54 23.08,18.15 28.91,31.92l-30.05 18.55c-4.45,-9.96 -11.01,-17.66 -19.6,-23 -8.67,-5.43 -18.63,-8.1 -30.05,-8.1 -10.93,0 -19.84,3.08 -26.73,9.16 -6.88,6.07 -10.29,13.85 -10.29,23.4 0,13.28 14.42,24.46 43.17,33.45 5.43,1.79 9.72,3.08 12.88,4.05 23.49,7.61 39.93,16.28 49.17,26 9.23,9.72 13.85,22.52 13.85,38.56 0,20.49 -7.29,37.18 -21.95,49.89 -14.58,12.72 -33.69,19.12 -57.26,19.12 -20.25,0 -37.42,-3.8 -51.59,-11.42 -14.1,-7.53 -25.51,-19.04 -34.02,-34.34z"/>
  <path id="11" class="fil0" d="M5004.54 1153.65c0,-7.37 2.67,-13.77 7.94,-19.11 5.35,-5.27 11.83,-7.94 19.44,-7.94 7.37,0 13.77,2.67 19.12,8.1 5.26,5.34 7.94,11.83 7.94,19.44 0,7.45 -2.59,13.85 -7.86,19.03 -5.19,5.27 -11.66,7.86 -19.2,7.86 -7.61,0 -14.09,-2.59 -19.44,-7.86 -5.26,-5.18 -7.94,-11.74 -7.94,-19.52zm8.75 321.88l0 -217.23 37.42 0 0 217.23 -37.42 0z"/>
  <path id="12" class="fil0" d="M5454.33 1367.64c0,-24.38 -6.64,-43.98 -19.92,-58.88 -13.36,-14.82 -30.78,-22.27 -52.49,-22.27 -22.27,0 -39.69,6.89 -52.24,20.66 -12.47,13.77 -18.71,32.97 -18.71,57.67 0,26.25 6.32,46.49 18.87,60.67 12.55,14.25 30.37,21.38 53.54,21.38 22.11,0 39.52,-6.97 52.08,-20.98 12.56,-14.01 18.87,-33.45 18.87,-58.24zm35.96 -109.34l0 213.42c0,23.57 -1.62,40.34 -4.78,50.38 -3.16,9.96 -8.34,18.87 -15.64,26.81 -10.12,10.93 -22.52,19.12 -37.17,24.46 -14.58,5.43 -31.43,8.1 -50.38,8.1 -32.97,0 -58.56,-7.53 -77.03,-22.6 -18.47,-15.06 -28.03,-36.37 -28.84,-63.91l41.79 0 0 2.84c0,16.36 5.59,28.91 16.85,37.82 11.26,8.83 27.13,13.28 47.7,13.28 14.9,0 27.62,-2.43 38.15,-7.21 10.53,-4.86 18.55,-12.07 24.06,-21.54 3.32,-5.35 5.75,-11.66 7.13,-18.79 1.46,-7.13 2.18,-17.33 2.18,-30.61l0 -17.09 0 -19.35c-8.43,15.47 -19.44,27.29 -32.97,35.63 -13.61,8.26 -28.91,12.4 -45.84,12.4 -31.18,0 -56.29,-10.62 -75.33,-31.84 -19.03,-21.14 -28.59,-49.33 -28.59,-84.4 0,-35.48 9.23,-63.58 27.78,-84.4 18.47,-20.82 43.25,-31.18 74.27,-31.18 17.98,0 33.86,4.05 47.47,12.23 13.61,8.18 24.3,20.25 32.23,36.04l0 -40.5 36.94 0z"/>
  <path id="13" class="fil0" d="M5724.63 1475.53l0 -217.23 36.45 0 0 33.54c9.31,-13.94 20.57,-24.3 33.69,-31.1 13.12,-6.81 28.35,-10.21 45.52,-10.21 25.68,0 45.68,6.81 60.02,20.41 14.42,13.61 21.63,32.56 21.63,56.77l0 147.82 -37.9 0 0 -127.89c0,-22.03 -4.62,-38.31 -13.85,-49 -9.31,-10.69 -23.57,-16.04 -42.84,-16.04 -11.1,0 -21.22,2.03 -30.29,6.07 -9.08,4.05 -16.61,9.72 -22.68,17.17 -4.54,5.67 -7.86,12.23 -9.8,19.44 -2.02,7.29 -3,19.92 -3,37.99l0 112.26 -36.94 0z"/>
  <polygon class="fil0" points="-0,974.53 5921.96,974.53 5921.96,1003 -0,1003 "/>
 </g>
</svg>
